<svg t="1691152140707" class="icon" viewBox="0 0 1024 1024" version="1.1" xmlns="http://www.w3.org/2000/svg" p-id="2047" width="200" height="200"><path d="M409.6 237.67L162.81 607.26C103 696.87 167.2 817 275 817h493.54c107.76 0 172-120.13 112.15-209.74L633.9 237.67c-53.39-79.96-170.9-79.96-224.3 0z" fill="#FFE3C5" p-id="2048"></path><path d="M226.88 607.26l246.8-369.59a133.35 133.35 0 0 1 80.15-56.17c-52.21-12.59-110.74 6.13-144.15 56.17l-246.8 369.59C103 696.87 167.28 817 275 817h64c-107.72 0-172-120.13-112.12-209.74z" fill="#FFD0A1" p-id="2049"></path><path d="M323.5 562m22.54 0l351.42 0q22.54 0 22.54 22.54l0 225.92q0 22.54-22.54 22.54l-351.42 0q-22.54 0-22.54-22.54l0-225.92q0-22.54 22.54-22.54Z" fill="#FCAE3F" p-id="2050"></path><path d="M362 810.46V584.54A22.54 22.54 0 0 1 384.54 562h-39A22.54 22.54 0 0 0 323 584.54v225.92A22.54 22.54 0 0 0 345.54 833h39A22.54 22.54 0 0 1 362 810.46z" fill="#EF9529" p-id="2051"></path><path d="M482.37 357.04a13.74 20.04 0 1 0 27.48 0 13.74 20.04 0 1 0-27.48 0Z" fill="#66451D" p-id="2052"></path><path d="M585.37 357.04a13.74 20.04 0 1 0 27.48 0 13.74 20.04 0 1 0-27.48 0Z" fill="#66451D" p-id="2053"></path><path d="M533.87 445.04a13.74 20.04 0 1 0 27.48 0 13.74 20.04 0 1 0-27.48 0Z" fill="#66451D" p-id="2054"></path><path d="M430.87 445.04a13.74 20.04 0 1 0 27.48 0 13.74 20.04 0 1 0-27.48 0Z" fill="#66451D" p-id="2055"></path><path d="M636.87 445.04a13.74 20.04 0 1 0 27.48 0 13.74 20.04 0 1 0-27.48 0Z" fill="#66451D" p-id="2056"></path></svg>